<svg id="flat" height="512" viewBox="0 0 512 512" width="512" xmlns="http://www.w3.org/2000/svg"><path d="m368 24v88l-56 45.82-32 26.18h-48l-32-26.18-56-45.82v-88z" fill="#ad543b"/><path d="m312 24v133.82l-32 26.18h-48l-32-26.18v-133.82z" fill="#a3442c"/><path d="m232 184h48v56h-48z" fill="#cc9e41"/><path d="m376 416-120 72-120-72v-120l120-72 120 72z" fill="#deb55b"/><path d="m348.11572 313.13965-40-24-8.23144 13.7207 28.56665 17.13965h-32.45093a8.00035 8.00035 0 0 0 -5.65674 2.34277l-10.34326 10.34323v-36.686a8.00008 8.00008 0 0 0 -8-8h-16a7.99983 7.99983 0 0 0 -4.4375 1.34375l-24 16a8.00026 8.00026 0 0 0 -1.21924 12.31348l11.92285 11.92285-3.12426 6.2478-13.48511-13.48511a8.00035 8.00035 0 0 0 -5.65674-2.34277h-48a8.0001 8.0001 0 0 0 -5.65674 13.65723l21.84717 21.84668a32.045 32.045 0 0 0 31.80957 28.49609h14.3855l-13.04175 19.5625a7.99891 7.99891 0 0 0 .40918 9.43457l4.19263 5.24072-41.82984-25.09814-8.23144 13.7207 80 48a7.99986 7.99986 0 0 0 8.41064-.11133l88-56a7.99846 7.99846 0 0 0 3.70508-6.74902v-72a8.00091 8.00091 0 0 0 -3.88428-6.86035zm-124.11572 54.86035h-8a16.01833 16.01833 0 0 1 -16-16 8.00076 8.00076 0 0 0 -2.34326-5.65723l-10.34326-10.34277h25.373l11.31352 11.314zm64-20.686 11.314-11.314h25.372l-10.34278 10.34277a8.00076 8.00076 0 0 0 -2.34322 5.65723 16.01833 16.01833 0 0 1 -16 16h-8zm-29.57764-43.314h5.57764v32h-11.05566l2.21093-4.42188a8.00091 8.00091 0 0 0 -1.49853-9.23535l-9.09961-9.09961zm-18.42236 48h32v13.57812l-12.28125 18.42188h-7.4375l-12.28125-18.42188zm1.33337 44.42188.01038.01562a7.99943 7.99943 0 0 0 6.65625 3.5625h16a7.99943 7.99943 0 0 0 6.65625-3.5625l.01038-.01562 7.432 11.14843-22.09863 27.62354-22.09863-27.62354zm50.98792 18.98242 1.92578-2.40723a7.99891 7.99891 0 0 0 .40918-9.43457l-13.04175-19.5625h14.3855a32.045 32.045 0 0 0 31.80957-28.49609l8.19043-8.19019v40.29468z" fill="#cc9e41"/><g fill="#bc674a"><path d="m216 24 40 56 40-56z"/><path d="m248 52h16v132h-16z"/></g></svg>