<svg id="Layer_1" height="512" viewBox="0 0 512 512" width="512" xmlns="http://www.w3.org/2000/svg" data-name="Layer 1"><path d="m222.37 244.79v.79 42.78l.2.61 66.06.06v-43.45-.79z" fill="#d3ae8c"/><path d="m252.37 288.36v-42.78-.79h-30v.79 42.78l.2.61h30z" fill="#efccaf"/><path d="m461.43 14.12-141 234.67-19.71-33.03.6-.36 120.9-201.28z" fill="#e75163"/><path d="m422.22 14.12-120.9 201.28-.6.36-26.53-44.47 1.41-.84 95.18-156.33z" fill="#bdcde0"/><path d="m370.78 14.12-95.18 156.33-1.41.84-20.21-33.89 2.02-1.21 75.57-122.07z" fill="#e75163"/><path d="m180.43 14.12h-39.21l140 234.67h39.21z" fill="#f9828e"/><path d="m141.22 14.12 140 234.67h-51.44l-140-234.67z" fill="#d4e1f4"/><path d="m89.78 14.12h-39.21l140 234.67h39.21z" fill="#f9828e"/><path d="m288.63 283.03a110.544 110.544 0 1 1 -33.13-5.08 110.025 110.025 0 0 1 33.13 5.08z" fill="#fff399"/><path d="m255.5 305.07a82.845 82.845 0 1 1 -82.84 82.85 82.844 82.844 0 0 1 82.84-82.85z" fill="#e8b95b"/><path d="m291.31 379.88-17.9 17.45 4.22 24.65-22.13-11.64-22.13 11.64 4.22-24.65-17.9-17.45 24.74-3.6 11.07-22.42 11.07 22.42z" fill="#fff399"/><path d="m202.66 387.92a82.853 82.853 0 0 1 67.84-81.47 82.845 82.845 0 1 0 0 162.93 82.849 82.849 0 0 1 -67.84-81.46z" fill="#ce9e4a"/><g fill="#f4f8fc"><path d="m195.7 393.918a6 6 0 0 1 -6-6 65.881 65.881 0 0 1 33.927-57.577 6 6 0 1 1 5.82 10.494 53.876 53.876 0 0 0 -27.747 47.083 6 6 0 0 1 -6 6z"/><path d="m246.289 334.823a6 6 0 0 1 -.909-11.931c2.075-.32 4.2-.544 6.306-.665 1.258-.072 2.542-.109 3.813-.109a6 6 0 1 1 0 12c-1.043 0-2.095.03-3.127.09-1.728.1-3.463.281-5.159.543a6.05 6.05 0 0 1 -.924.072z"/></g></svg>