<svg height="512" viewBox="0 0 44 60" width="512" xmlns="http://www.w3.org/2000/svg"><g id="Page-1" fill="none" fill-rule="evenodd"><g id="004---Alien" fill-rule="nonzero"><path id="Shape" d="m43 20c-.0649424 3.4166961-1.5074138 6.6622567-4 9-.3250358 1.4745902-1.028054 2.8392726-2.04 3.96-.12 1.99-.65 6.5-2.96 8.04-3 2-5 4-6 6-.3538117.7110123-.8122422 1.3649499-1.36 1.94v.01c-1.1892915 1.3058187-2.8737676 2.0500592-4.64 2.0500592s-3.4507085-.7442405-4.64-2.0500592v-.01c-.5477578-.5750501-1.0061883-1.2289877-1.36-1.94-1-2-3-4-6-6-2.31-1.54-2.84-6.05-2.96-8.04-1.01194603-1.1207274-1.71496421-2.4854098-2.04-3.96-2.4925862-2.3377433-3.93505758-5.5833039-4-9-.02-3.85 2.46-6.88 4.23-8.55 2.18-10.45 16.77-10.45 16.77-10.45s14.59 0 16.77 10.45c1.77 1.67 4.25 4.7 4.23 8.55z" fill="#9bbb00"/><path id="Shape" d="m38.77 11.45c-2.18-10.45-16.77-10.45-16.77-10.45s-.573 0-1.5.081c3.776.326 13.52 1.979 15.27 10.369 1.77 1.67 4.25 4.7 4.23 8.55-.0649424 3.4166961-1.5074138 6.6622567-4 9-.3250358 1.4745902-1.028054 2.8392726-2.04 3.96-.12 1.99-.65 6.5-2.96 8.04-3 2-5 4-6 6-.3538117.7110123-.8122422 1.3649499-1.36 1.94v.01c-.8439119.9133249-1.9346596 1.5622156-3.14 1.868 2.2343582.550237 4.5906582-.1666308 6.14-1.868v-.01c.5477578-.5750501 1.0061883-1.2289877 1.36-1.94 1-2 3-4 6-6 2.31-1.54 2.84-6.05 2.96-8.04 1.011946-1.1207274 1.7149642-2.4854098 2.04-3.96 2.4925862-2.3377433 3.9350576-5.5833039 4-9 .02-3.85-2.46-6.88-4.23-8.55z" fill="#87a300"/><path id="Shape" d="m42 59h-40c0-2 1-4 5-4 7.67 0 10.74-2.76 10.98-2.98-.0842507-1.0442908-.2923785-2.074859-.62-3.07 1.1892915 1.3058187 2.8737676 2.0500592 4.64 2.0500592s3.4507085-.7442405 4.64-2.0500592c-.3276215.995141-.5357493 2.0257092-.62 3.07.24.22 3.31 2.98 10.98 2.98 4 0 5 2 5 4z" fill="#60a017"/><path id="Shape" d="m37 55c-7.67 0-10.74-2.76-10.98-2.98.0842507-1.0442908.2923785-2.074859.62-3.07-.9226739.9993628-2.1405859 1.6776935-3.476 1.936-.0679275.3752017-.1159945.7537288-.144 1.134.24.22 3.31 2.98 10.98 2.98 4 0 5 2 5 4h3c0-2-1-4-5-4z" fill="#548b14"/><path id="Shape" d="m18.371 26.315c-1.7642003-2.9892755-5.1226228-4.6600623-8.571-4.264-1.02032903.096453-1.79990665.9531222-1.8 1.978.019 2.274.568 6.217 4.052 7.091 2.4682781.6600657 5.0721209-.4203568 6.348-2.634.4212553-.6655151.4098816-1.5169746-.029-2.171z" fill="#3f51ac"/><path id="Shape" d="m18.371 26.315c-1.7642003-2.9892755-5.1226228-4.6600623-8.571-4.264-.14222303.0156266-.2823586.0464699-.418.092 2.5028718.4684361 4.6848303 1.9873967 5.993 4.172.4379609.6546225.448158 1.5060767.026 2.171-.7734863 1.2460306-1.9636341 2.1775276-3.359 2.629l.014.005c2.4670248.6580504 5.0685665-.4220979 6.344-2.634.4212553-.6655151.4098816-1.5169746-.029-2.171z" fill="#28358a"/><path id="Shape" d="m25.629 26.315c1.7642003-2.9892755 5.1226228-4.6600623 8.571-4.264 1.020329.096453 1.7999067.9531222 1.8 1.978-.019 2.274-.568 6.217-4.052 7.091-2.4682781.6600657-5.0721209-.4203568-6.348-2.634-.4212553-.6655151-.4098816-1.5169746.029-2.171z" fill="#3f51ac"/><path id="Shape" d="m34.2 22.051c-.8607771-.0889659-1.7297377-.0580037-2.582.092.8230887.2594252 1.3826087 1.0229959 1.382 1.886-.019 2.27-.567 6.205-4.038 7.086.9768685.2694597 2.0082346.2711867 2.986.005 3.484-.874 4.033-4.817 4.052-7.091-.0000933-1.0248778-.779671-1.881547-1.8-1.978z" fill="#28358a"/><g fill="#000"><path id="Shape" d="m9.694 21.056c-1.53495378.1451237-2.70447415 1.4392366-2.694 2.981.036 4.423 1.743 7.283 4.808 8.053.5755949.1465903 1.1670358.2218219 1.761.224 2.3289521-.0337297 4.4732683-1.274578 5.663-3.277.6439991-.9971314.6345701-2.2814317-.024-3.269-1.9691236-3.3045594-5.6920775-5.1484272-9.514-4.712zm7.84 5.807c.2192404.3211324.2301935.7408703.028 1.073-1.0387459 1.8573628-3.2078225 2.7700073-5.262 2.214-2.83-.71-3.279-4.145-3.3-6.129.0096238-.506276.39616152-.9254547.9-.976.3010624-.0300754.6034391-.0450941.906-.045 2.7714429-.005623 5.3356768 1.4666771 6.728 3.863z"/><path id="Shape" d="m30.431 32.314c.5939642-.0021781 1.1854051-.0774097 1.761-.224 3.065-.77 4.772-3.63 4.808-8.052.0110416-1.5417967-1.1580578-2.8363583-2.693-2.982-3.8223557-.4373613-7.5460805 1.4066945-9.515 4.712-.6585701.9875683-.6679991 2.2718686-.024 3.269 1.1897317 2.002422 3.3340479 3.2432703 5.663 3.277zm-3.965-5.451c1.5567238-2.6799531 4.5559274-4.1799477 7.634-3.818.5038385.0505453.8903762.469724.9.976-.016 1.984-.465 5.419-3.3 6.129-2.0556154.5566806-4.2264686-.3558444-5.267-2.214-.2007049-.3331029-.1877953-.7528603.033-1.073z"/><path id="Shape" d="m6.778 20.628c.1-.129 2.634-3.109 7.8-.669.4995416.2358256 1.0956744.0220415 1.3315-.4775.2358256-.4995416.0220415-1.0956744-.4775-1.3315-5.312-2.511-9-.295-10.21 1.228-.33581974.4315807-.26269013 1.052873.16416203 1.3946829.42685217.3418098 1.04910454.2773576 1.39683797-.1446829z"/><path id="Shape" d="m29.427 19.959c5.143-2.433 7.673.521 7.794.667.3492752.4147855.965493.4756217 1.3891344.1371426.4236414-.3384792.5003243-.9529262.1728656-1.3851426-1.207-1.523-4.9-3.739-10.21-1.228-.4995416.2358256-.7133256.8319584-.4775 1.3315s.8319584.7133256 1.3315.4775z"/><path id="Shape" d="m18.293 34.293c-.2599566.2510745-.3642126.6228779-.2726972.9725073.0915155.3496295.3645604.6226744.7141899.7141899.3496294.0915154.7214328-.0127406.9725073-.2726972l1-1c.3789722-.3923789.3735524-1.0160848-.0121814-1.4018186s-1.0094397-.3911536-1.4018186-.0121814z"/><path id="Shape" d="m23.293 34.707 1 1c.3923789.3789722 1.0160848.3735524 1.4018186-.0121814s.3911536-1.0094397.0121814-1.4018186l-1-1c-.3923789-.3789722-1.0160848-.3735524-1.4018186.0121814s-.3911536 1.0094397-.0121814 1.4018186z"/><path id="Shape" d="m24 41h-4c-.5522847 0-1 .4477153-1 1s.4477153 1 1 1h4c.5522847 0 1-.4477153 1-1s-.4477153-1-1-1z"/><path id="Shape" d="m6.064 33.335c.187 2.589.881 6.83 3.381 8.5 2.84 1.893 4.744 3.782 5.66 5.615.3633427.7274935.8227863 1.402869 1.366 2.008.2170671.6908117.3720157 1.3996263.463 2.118-.974.694-3.991 2.424-9.934 2.424-5.221 0-6 3.133-6 5 0 .5522847.44771525 1 1 1h40c.5522847 0 1-.4477153 1-1 0-1.867-.779-5-6-5-5.949 0-8.967-1.734-9.934-2.426.0909888-.7187005.2459367-1.4278467.463-2.119.5449732-.6048282 1.0061083-1.2802178 1.371-2.008.916-1.833 2.82-3.722 5.66-5.615 2.5-1.667 3.194-5.908 3.381-8.5.9170843-1.1255862 1.5878609-2.4310286 1.969-3.832 2.5601809-2.5051842 4.0297213-5.9185421 4.09-9.5.021-3.964-2.287-7.085-4.322-9.067-2.538-10.794-17.518-10.933-17.678-10.933s-15.14.139-17.678 10.938c-2.035 1.982-4.343 5.103-4.322 9.062.05984773 3.5815505 1.52945564 6.9950652 4.09 9.5.38224531 1.4024392 1.05475936 2.7089698 1.974 3.835zm34.818 24.665h-37.764c.282-1.029 1.182-2 3.882-2 3.4005743.1270731 6.7811329-.5736782 9.851-2.042-.1157382.5202501-.3373374 1.0111042-.651 1.442-.2143594.2858125-.2599565.6642735-.1196153.9928204s.4452995.5572656.8.6c.3547006.0427344.705256-.1070079.9196153-.3928204.9117373-1.317725 1.3302207-2.9144767 1.182-4.51.0053273-.0751702.0016343-.1507079-.011-.225-.0133333-.188-.0313333-.3736667-.054-.557 1.9517937.9226234 4.2142063.9226234 6.166 0-.022.177-.04.357-.053.539-.0144798.0811521-.0185126.1638239-.012.246-.1476741 1.5945384.2707922 3.1901626 1.182 4.507.2143593.2858125.5649147.4355548.9196153.3928204.3547005-.0427344.6596588-.2714531.8-.6s.0947441-.7070079-.1196153-.9928204c-.3136626-.4308958-.5352618-.9217499-.651-1.442 3.0698671 1.4683218 6.4504257 2.1690731 9.851 2.042 2.7 0 3.6.971 3.882 2zm-36.459-44.2c.1427631.111483.31388955.180765.494.2.26541988.0229507.52902573-.060957.73234272-.23311.20331699-.1721529.32953564-.4183183.35065728-.68389.908-10.935 15.385-11.083 16-11.083s15.093.148 16 11.083c.0432759.519635.4785692.9187989 1 .917h.084c.1801105-.019235.3512369-.088517.494-.2 1.4987227 1.7251826 2.3544518 3.915736 2.422 6.2-.0695072 3.1525372-1.4056844 6.1442476-3.707 8.3-.1460071.1468526-.2433967.3349996-.279.539-.2773642 1.2461169-.861733 2.4031673-1.7 3.366-.021.018-.035.039-.054.057-1.4007934 1.5500587-3.3228442 2.5306605-5.4 2.755-.5467619.0784245-.9264244.5852381-.8479999 1.132.0784244.5467619.585238.9264244 1.1319999.848 1.6157923-.2088325 3.1658037-.770797 4.54-1.646-.417 2.4-1.206 4.137-2.237 4.824-3.132 2.088-5.265 4.236-6.34 6.385-.9066832 2.0270399-2.8878104 3.3614979-5.107 3.44-2.2182458-.0823991-4.1964564-1.4194367-5.1-3.447-1.075-2.149-3.207-4.3-6.34-6.385-1.031-.687-1.82-2.428-2.237-4.824 1.3741963.875203 2.9242077 1.4371675 4.54 1.646.5467619.0784244 1.0535756-.3012381 1.132-.848s-.3012381-1.0535756-.848-1.132c-2.0804244-.223235-4.00568937-1.2050916-5.408-2.758-.01528587-.0182913-.03164821-.0356554-.049-.052-.83815486-.9625239-1.42251984-2.1192229-1.7-3.365-.03432477-.2053006-.13185781-.3947733-.279-.542-2.30089019-2.1535208-3.63835776-5.1423698-3.711-8.293.06782719-2.2843885.92391521-4.4749562 2.423-6.2z"/><path id="Shape" d="m22 23c.5522847 0 1-.4477153 1-1v-4c0-.5522847-.4477153-1-1-1s-1 .4477153-1 1v4c0 .5522847.4477153 1 1 1z"/></g></g></g></svg>