<?xml version="1.0" encoding="iso-8859-1"?>
<!-- Generator: Adobe Illustrator 19.0.0, SVG Export Plug-In . SVG Version: 6.00 Build 0)  -->
<svg version="1.1" id="Capa_1" xmlns="http://www.w3.org/2000/svg" xmlns:xlink="http://www.w3.org/1999/xlink" x="0px" y="0px"
	 viewBox="0 0 512 512" style="enable-background:new 0 0 512 512;" xml:space="preserve">
<path style="fill:#8BC34A;" d="M256,0C132.347,0.141,32.141,100.347,32,224c0,115.968,94.048,288,224,288s224-172.032,224-288
	C479.859,100.347,379.653,0.141,256,0z"/>
<g>
	<path style="fill:#263238;" d="M416,173.728c-0.642-4.223-2.947-8.014-6.4-10.528c-3.401-2.515-7.648-3.606-11.84-3.04
		c-70.56,10.148-119.59,75.497-109.6,146.08c1.116,7.892,7.87,13.759,15.84,13.76c0.76-0.006,1.519-0.059,2.272-0.16
		c70.607-9.993,119.745-75.332,109.753-145.939C416.016,173.843,416.008,173.786,416,173.728z"/>
	<path style="fill:#263238;" d="M114.272,160.16c-8.747-1.256-16.856,4.817-18.111,13.564c0,0.001,0,0.003-0.001,0.004
		c-10.1,70.592,38.938,136.006,109.53,146.107c0.013,0.002,0.025,0.004,0.038,0.005c0.753,0.1,1.512,0.153,2.272,0.16
		c8.031,0.079,14.876-5.808,16-13.76c10.071-70.596-38.995-135.99-109.591-146.061C114.363,160.173,114.318,160.166,114.272,160.16z
		"/>
</g>
<path d="M256,512C126.048,512,32,339.968,32,224C32,100.288,132.288,0,256,0s224,100.288,224,224C480,339.968,385.952,512,256,512z
	 M256,32C150.005,32.106,64.106,118.005,64,224c0,112.832,90.4,256,192,256s192-143.168,192-256
	C447.894,118.005,361.995,32.106,256,32z"/>
<path d="M304,320c-7.948-0.015-14.679-5.861-15.808-13.728C278.2,235.694,327.208,170.34,397.76,160.16
	c4.192-0.566,8.439,0.525,11.84,3.04c3.453,2.514,5.758,6.305,6.4,10.528c10.086,70.594-38.966,135.998-109.561,146.084
	c-0.066,0.01-0.133,0.019-0.199,0.028C305.499,319.955,304.75,320.009,304,320z M385.12,195.904
	c-38.18,12.875-64.488,47.935-66.176,88.192c38.19-12.855,64.497-47.93,66.144-88.192L385.12,195.904z"/>
<path d="M208,320c-0.76,0.01-1.52-0.043-2.272-0.16c-70.595-10.079-119.653-75.479-109.573-146.074
	c0.002-0.013,0.004-0.025,0.005-0.038c0.603-4.198,2.847-7.984,6.24-10.528c3.405-2.506,7.649-3.595,11.84-3.04
	c70.629,10.085,119.746,75.468,109.76,146.112C222.861,314.212,216.02,320.081,208,320z M126.912,195.904
	c1.647,40.262,27.954,75.337,66.144,88.192C191.364,243.85,165.074,208.797,126.912,195.904z"/>
<g>
</g>
<g>
</g>
<g>
</g>
<g>
</g>
<g>
</g>
<g>
</g>
<g>
</g>
<g>
</g>
<g>
</g>
<g>
</g>
<g>
</g>
<g>
</g>
<g>
</g>
<g>
</g>
<g>
</g>
</svg>
