<svg id="Capa_1" enable-background="new 0 0 512 512" height="512" viewBox="0 0 512 512" width="512" xmlns="http://www.w3.org/2000/svg"><g><g><g><g><path d="m402.777 95.629-25.254-16.172c12.686-19.805 32.846-35.951 54.965-43.642l9.844 28.33c-15.791 5.494-30.473 17.319-39.555 31.484z" fill="#5ab267"/></g></g></g><g><path d="m109.223 95.629c-9.082-14.165-23.764-25.99-39.555-31.483l9.844-28.33c22.119 7.69 42.279 23.837 54.965 43.642z" fill="#8cd96b"/></g><g><path d="m346 391c-16.5 0-30-13.5-30-30 0-2.204 1.786-3.903 4.2-3.3 8.399 2.1 16.8 3.3 25.8 3.3 44.399 0 84.3-28.2 99-70.201l6.301-18.3-19.2-1.8c-23.101-2.1-41.1-21.599-41.1-44.7 0-24.901 20.099-45 45-45h15v-15c0-37.8-20.4-72.9-53.699-91.8-28.802-15.9-65.401-17.7-96.302-2.7-28.5-13.799-61.5-13.799-90 0-30.901-15-67.5-13.499-96.599 3.001-33.001 18.6-53.401 53.7-53.401 91.5v15h15c24.901 0 45 20.099 45 45 0 23.101-17.999 42.599-41.1 44.7l-19.2 1.8 6.301 18.3c14.699 42 54.6 70.2 98.999 70.2 9 0 17.401-1.199 26.1-3.3 2.26-.753 3.9 1.439 3.9 3.3 0 16.5-13.5 30-30 30-57.9 0-105 47.1-105 105v16h180l15-31 15 31h180v-16c0-57.9-47.1-105-105-105z" fill="#a3f255"/></g><path d="m271 512h180v-16c0-57.9-47.1-105-105-105-16.5 0-30-13.5-30-30 0-2.205 1.785-3.904 4.2-3.3 8.399 2.1 16.8 3.3 25.8 3.3 44.399 0 84.3-28.2 99-70.201l6.301-18.3-19.2-1.8c-23.101-2.1-41.1-21.599-41.1-44.7 0-24.901 20.099-45 45-45h15v-15c0-37.8-20.4-72.9-53.699-91.8-28.802-15.9-65.401-17.7-96.302-2.7-14.249-6.899-29.626-10.349-45-10.349v419.85z" fill="#8cd96b"/><g><g><path d="m256 301c-41.367 0-75-33.647-75-75s33.633-75 75-75 75 33.647 75 75-33.633 75-75 75z" fill="#edf5ff"/></g></g><path d="m331 226c0-41.353-33.633-75-75-75v150c41.367 0 75-33.647 75-75z" fill="#d5e8fe"/><g id="Alien_13_"><g><path d="m241 211h30v30h-30z" fill="#47568c"/></g><g><g><g><g><path d="m75 301c-41.367 0-75-33.647-75-75s33.633-75 75-75 75 33.647 75 75c0 41.415-34.6 75-75 75z" fill="#edf5ff"/></g></g></g></g><g><path d="m60 211h30v30h-30z" fill="#47568c"/></g><g><g><path d="m437 301c-42.671 0-75-35.284-75-75 0-41.353 33.633-75 75-75s75 33.647 75 75-33.633 75-75 75z" fill="#d5e8fe"/></g></g><g><path d="m422 211h30v30h-30z" fill="#29376d"/></g><g><path d="m467 90c-24.814 0-45-20.186-45-45s20.186-45 45-45 45 20.186 45 45-20.186 45-45 45z" fill="#8cd96b"/></g><g><path d="m45 90c-24.814 0-45-20.186-45-45s20.186-45 45-45 45 20.186 45 45-20.186 45-45 45z" fill="#a3f255"/></g><g><path d="m241 421h30v91h-30z" fill="#8cd96b"/></g></g><path d="m256 421h15v91h-15z" fill="#5ab267"/><path d="m256 211h15v30h-15z" fill="#29376d"/></g></svg>